<svg width="128" height="128" viewBox="0 0 128 128" fill="none" xmlns="http://www.w3.org/2000/svg">
<rect width="128" height="128" rx="16" fill="white"/>
<path d="M62.2 97.36C61.6133 93.8933 60.0667 90.16 57.56 86.16C55.0533 82.1067 51.48 78.3467 46.84 74.88C42.2533 71.4133 37.6667 69.2 33.08 68.24V64.88C37.6133 63.8133 41.96 61.84 46.12 58.96C50.3333 56.0267 53.8533 52.5067 56.68 48.4C59.56 44.1867 61.4 40.0267 62.2 35.92H65.56C66.04 38.5867 67 41.3333 68.44 44.16C69.88 46.9333 71.72 49.6 73.96 52.16C76.2533 54.6667 78.8133 56.9333 81.64 58.96C85.8533 61.9467 90.1467 63.92 94.52 64.88V68.24C91.5867 68.8267 88.5467 70.0267 85.4 71.84C82.3067 73.6533 79.4267 75.8133 76.76 78.32C74.0933 80.7733 71.9067 83.36 70.2 86.08C67.6933 90.08 66.1467 93.84 65.56 97.36H62.2Z" fill="black"/>
</svg>
